{
  "accessors": [
    {
      "bufferView": 2,
      "componentType": 5126,
      "count": 53,
      "max": [1.1858564615249634, 1.6914188861846924, 0.10344503819942474],
      "min": [-1.2292866706848145, -1.6915887594223022, -0.10344503819942474],
      "type": "VEC3"
    },
    {
      "bufferView": 2,
      "byteOffset": 636,
      "componentType": 5126,
      "count": 53,
      "max": [0.014099996536970139, 0.05259949713945389, 1.0],
      "min": [-1.0, -0.06080077588558197, -1.0],
      "type": "VEC3"
    },
    {
      "bufferView": 3,
      "componentType": 5126,
      "count": 53,
      "max": [1.0, 0.002470852807164192, 1.0, 1.0],
      "min": [-1.0, -1.0, -0.014099986292421818, -1.0],
      "type": "VEC4"
    },
    {
      "bufferView": 1,
      "componentType": 5126,
      "count": 53,
      "max": [1.000306487083435, 1.0009090900421143],
      "min": [-0.0015704024117439985, -0.010606169700622559],
      "type": "VEC2"
    },
    {
      "bufferView": 1,
      "byteOffset": 424,
      "componentType": 5126,
      "count": 53,
      "max": [1.000306487083435, 1.0009090900421143],
      "min": [-0.0015704024117439985, -0.010606169700622559],
      "type": "VEC2"
    },
    {
      "bufferView": 0,
      "componentType": 5125,
      "count": 111,
      "type": "SCALAR"
    },
    {
      "bufferView": 2,
      "byteOffset": 1272,
      "componentType": 5126,
      "count": 656,
      "max": [1.2307066917419434, 1.6915894746780396, 0.10344503819942474],
      "min": [-1.2292866706848145, -1.6915887594223022, -0.10344503819942474],
      "type": "VEC3"
    },
    {
      "bufferView": 2,
      "byteOffset": 9144,
      "componentType": 5126,
      "count": 656,
      "max": [1.0, 1.0, 1.0],
      "min": [-1.0, -1.0, -1.0],
      "type": "VEC3"
    },
    {
      "bufferView": 3,
      "byteOffset": 848,
      "componentType": 5126,
      "count": 656,
      "max": [1.0, 1.0, 1.0, 1.0],
      "min": [-1.0, -1.0, -1.0, -1.0],
      "type": "VEC4"
    },
    {
      "bufferView": 1,
      "byteOffset": 848,
      "componentType": 5126,
      "count": 656,
      "max": [0.7608823776245117, 1.0565617084503174],
      "min": [0.24954470992088318, -0.0006061792373657227],
      "type": "VEC2"
    },
    {
      "bufferView": 0,
      "byteOffset": 444,
      "componentType": 5125,
      "count": 2064,
      "type": "SCALAR"
    },
    {
      "bufferView": 4,
      "componentType": 5126,
      "count": 64,
      "max": [2.6666667461395264],
      "min": [0.0416666679084301],
      "type": "SCALAR"
    },
    {
      "bufferView": 5,
      "componentType": 5126,
      "count": 64,
      "max": [
        0.1896250694990158, 0.9811444878578186, 0.1897578090429306,
        0.9818309545516968
      ],
      "min": [
        -0.189625084400177, -0.9811444878578186, 0.007094670087099075,
        0.03670872375369072
      ],
      "type": "VEC4"
    }
  ],
  "animations": [
    {
      "channels": [
        {
          "sampler": 0,
          "target": {
            "node": 3,
            "path": "rotation"
          }
        }
      ],
      "name": "CubeAction",
      "samplers": [
        {
          "input": 11,
          "interpolation": "LINEAR",
          "output": 12
        }
      ]
    }
  ],
  "asset": {
    "extras": {
      "author": "anesu.ndaba (https://sketchfab.com/anesu.ndaba)",
      "license": "CC-BY-4.0 (http://creativecommons.org/licenses/by/4.0/)",
      "source": "https://sketchfab.com/3d-models/silent-hill-3-ps2-game-cover-85a5b3849a834a32bc82f528a2886d17",
      "title": "Silent Hill 3 Ps2 Game cover"
    },
    "generator": "Sketchfab-15.87.0",
    "version": "2.0"
  },
  "bufferViews": [
    {
      "buffer": 0,
      "byteLength": 8700,
      "name": "floatBufferViews",
      "target": 34963
    },
    {
      "buffer": 0,
      "byteLength": 6096,
      "byteOffset": 8700,
      "byteStride": 8,
      "name": "floatBufferViews",
      "target": 34962
    },
    {
      "buffer": 0,
      "byteLength": 17016,
      "byteOffset": 14796,
      "byteStride": 12,
      "name": "floatBufferViews",
      "target": 34962
    },
    {
      "buffer": 0,
      "byteLength": 11344,
      "byteOffset": 31812,
      "byteStride": 16,
      "name": "floatBufferViews",
      "target": 34962
    },
    {
      "buffer": 0,
      "byteLength": 256,
      "byteOffset": 43156,
      "name": "floatBufferViews"
    },
    {
      "buffer": 0,
      "byteLength": 1024,
      "byteOffset": 43412,
      "byteStride": 16,
      "name": "floatBufferViews"
    }
  ],
  "buffers": [
    {
      "byteLength": 44436,
      "uri": "scenesh.bin"
    }
  ],
  "extensionsUsed": ["KHR_texture_transform", "KHR_materials_specular"],
  "images": [
    {
      "uri": "texturessh/Material.002_baseColor.jpeg"
    },
    {
      "uri": "texturessh/Material.002_normal.png"
    },
    {
      "uri": "texturessh/Material.001_normal.jpeg"
    }
  ],
  "materials": [
    {
      "doubleSided": true,
      "name": "Material.002",
      "normalTexture": {
        "extensions": {
          "KHR_texture_transform": {
            "offset": [0, 0.5],
            "scale": [0.4, 0.5]
          }
        },
        "index": 1
      },
      "pbrMetallicRoughness": {
        "baseColorTexture": {
          "index": 0
        },
        "metallicFactor": 0.0,
        "roughnessFactor": 0.1
      }
    },
    {
      "doubleSided": true,
      "extensions": {
        "KHR_materials_specular": {
          "specularColorFactor": [1.0, 1.0, 1.0],
          "specularFactor": 1.0
        }
      },
      "name": "Material.001",
      "normalTexture": {
        "extensions": {
          "KHR_texture_transform": {
            "offset": [0, -9],
            "scale": [10, 10]
          }
        },
        "index": 2
      },
      "pbrMetallicRoughness": {
        "baseColorFactor": [0.003642, 0.003642, 0.003642, 1.0],
        "metallicFactor": 0.0,
        "roughnessFactor": 0.181159
      }
    }
  ],
  "meshes": [
    {
      "name": "Object_0",
      "primitives": [
        {
          "attributes": {
            "NORMAL": 1,
            "POSITION": 0,
            "TANGENT": 2,
            "TEXCOORD_0": 3,
            "TEXCOORD_1": 4
          },
          "indices": 5,
          "material": 0,
          "mode": 4
        }
      ]
    },
    {
      "name": "Object_1",
      "primitives": [
        {
          "attributes": {
            "NORMAL": 7,
            "POSITION": 6,
            "TANGENT": 8,
            "TEXCOORD_0": 9
          },
          "indices": 10,
          "material": 1,
          "mode": 4
        }
      ]
    }
  ],
  "nodes": [
    {
      "children": [1],
      "matrix": [
        1.0, 0.0, 0.0, 0.0, 0.0, 2.220446049250313e-16, -1.0, 0.0, 0.0, 1.0,
        2.220446049250313e-16, 0.0, 0.0, 0.0, 0.0, 1.0
      ],
      "name": "Sketchfab_model"
    },
    {
      "children": [2],
      "name": "root"
    },
    {
      "children": [3],
      "matrix": [
        1.0, 0.0, 0.0, 0.0, 0.0, 2.220446049250313e-16, 1.0, 0.0, 0.0, -1.0,
        2.220446049250313e-16, 0.0, 0.0, 0.0, 0.0, 1.0
      ],
      "name": "GLTF_SceneRootNode"
    },
    {
      "children": [4, 5],
      "name": "Cube_4",
      "rotation": [0.0, 0.0, 0.1897577941417694, 0.9818309545516968],
      "scale": [1.0017690658569336, 1.0017690658569336, 1.0017690658569336],
      "translation": [0.0, 1.8027664422988892, 0.0]
    },
    {
      "mesh": 0,
      "name": "Object_4"
    },
    {
      "mesh": 1,
      "name": "Object_5"
    }
  ],
  "samplers": [
    {
      "magFilter": 9729,
      "minFilter": 9987,
      "wrapS": 10497,
      "wrapT": 10497
    }
  ],
  "scene": 0,
  "scenes": [
    {
      "name": "Sketchfab_Scene",
      "nodes": [0]
    }
  ],
  "textures": [
    {
      "sampler": 0,
      "source": 0
    },
    {
      "sampler": 0,
      "source": 1
    },
    {
      "sampler": 0,
      "source": 2
    }
  ]
}
