{
  "accessors": [
    {
      "bufferView": 2,
      "componentType": 5126,
      "count": 116,
      "max": [219.79432678222656, 265.00830078125, 57.376502990722656],
      "min": [-57.12786865234375, -268.7642822265625, -1.9073486328125e-6],
      "type": "VEC3"
    },
    {
      "bufferView": 2,
      "byteOffset": 1392,
      "componentType": 5126,
      "count": 116,
      "max": [0.997148871421814, 0.9577023386955261, 1.0],
      "min": [-0.9971736669540405, -0.9928475022315979, -1.0],
      "type": "VEC3"
    },
    {
      "bufferView": 1,
      "componentType": 5126,
      "count": 116,
      "max": [2.4693052768707275, 1.198030948638916],
      "min": [-1.4693074226379395, 0.0],
      "type": "VEC2"
    },
    {
      "bufferView": 0,
      "componentType": 5125,
      "count": 300,
      "type": "SCALAR"
    },
    {
      "bufferView": 2,
      "byteOffset": 2784,
      "componentType": 5126,
      "count": 48,
      "max": [325.10302734375, -35.559295654296875, 53.70646667480469],
      "min": [-259.51458740234375, -212.40835571289063, 4.768720626831055],
      "type": "VEC3"
    },
    {
      "bufferView": 2,
      "byteOffset": 3360,
      "componentType": 5126,
      "count": 48,
      "max": [0.35647451877593994, 0.9621197581291199, 1.0],
      "min": [-0.3622569739818573, -0.9660382866859436, -1.0],
      "type": "VEC3"
    },
    {
      "bufferView": 1,
      "byteOffset": 928,
      "componentType": 5126,
      "count": 48,
      "max": [1.0, 1.0],
      "min": [0.0, 0.0],
      "type": "VEC2"
    },
    {
      "bufferView": 0,
      "byteOffset": 1200,
      "componentType": 5125,
      "count": 72,
      "type": "SCALAR"
    },
    {
      "bufferView": 2,
      "byteOffset": 3936,
      "componentType": 5126,
      "count": 126,
      "max": [193.53302001953125, -82.58798217773438, 53.826622009277344],
      "min": [-315.7886657714844, -262.4869079589844, 4.648603439331055],
      "type": "VEC3"
    },
    {
      "bufferView": 2,
      "byteOffset": 5448,
      "componentType": 5126,
      "count": 126,
      "max": [0.9365195631980896, 0.9936524629592896, 1.0],
      "min": [-0.9908633828163147, -0.9936923980712891, -1.0],
      "type": "VEC3"
    },
    {
      "bufferView": 1,
      "byteOffset": 1312,
      "componentType": 5126,
      "count": 126,
      "max": [1.0, 1.0],
      "min": [0.0, 1.0],
      "type": "VEC2"
    },
    {
      "bufferView": 0,
      "byteOffset": 1488,
      "componentType": 5125,
      "count": 306,
      "type": "SCALAR"
    },
    {
      "bufferView": 2,
      "byteOffset": 6960,
      "componentType": 5126,
      "count": 128,
      "max": [376.5069274902344, -20.345977783203125, 53.582218170166016],
      "min": [-109.21369171142578, -163.70944213867188, 4.892938613891602],
      "type": "VEC3"
    },
    {
      "bufferView": 2,
      "byteOffset": 8496,
      "componentType": 5126,
      "count": 128,
      "max": [0.9824165105819702, 0.993699848651886, 1.0],
      "min": [-0.8908501267433167, -0.9919061660766602, -1.0],
      "type": "VEC3"
    },
    {
      "bufferView": 1,
      "byteOffset": 2320,
      "componentType": 5126,
      "count": 128,
      "max": [1.0, 1.0],
      "min": [0.0, 1.0],
      "type": "VEC2"
    },
    {
      "bufferView": 0,
      "byteOffset": 2712,
      "componentType": 5125,
      "count": 306,
      "type": "SCALAR"
    },
    {
      "bufferView": 2,
      "byteOffset": 10032,
      "componentType": 5126,
      "count": 1812,
      "max": [367.03082275390625, -298.3709411621094, 32.732872009277344],
      "min": [-312.1558532714844, -429.8614196777344, 24.64371681213379],
      "type": "VEC3"
    },
    {
      "bufferView": 2,
      "byteOffset": 31776,
      "componentType": 5126,
      "count": 1812,
      "max": [0.9776855111122131, 1.0, 1.0],
      "min": [-0.9776855111122131, -1.0, -1.0],
      "type": "VEC3"
    },
    {
      "bufferView": 1,
      "byteOffset": 3344,
      "componentType": 5126,
      "count": 1812,
      "max": [4.623788833618164, 1.0],
      "min": [-4.355501651763916, -0.2848687469959259],
      "type": "VEC2"
    },
    {
      "bufferView": 0,
      "byteOffset": 3936,
      "componentType": 5125,
      "count": 4284,
      "type": "SCALAR"
    }
  ],
  "asset": {
    "extras": {
      "author": "Anthony Yanez (https://sketchfab.com/paulyanez)",
      "license": "CC-BY-4.0 (http://creativecommons.org/licenses/by/4.0/)",
      "source": "https://sketchfab.com/3d-models/playstation-2-logo-266d26be2a6d47d58880bb723d1faf7a",
      "title": "Playstation 2 Logo"
    },
    "generator": "Sketchfab-12.66.0",
    "version": "2.0"
  },
  "bufferViews": [
    {
      "buffer": 0,
      "byteLength": 21072,
      "name": "floatBufferViews",
      "target": 34963
    },
    {
      "buffer": 0,
      "byteLength": 17840,
      "byteOffset": 21072,
      "byteStride": 8,
      "name": "floatBufferViews",
      "target": 34962
    },
    {
      "buffer": 0,
      "byteLength": 53520,
      "byteOffset": 38912,
      "byteStride": 12,
      "name": "floatBufferViews",
      "target": 34962
    }
  ],
  "buffers": [
    {
      "byteLength": 92432,
      "uri": "scenelogo.bin"
    }
  ],
  "materials": [
    {
      "doubleSided": true,
      "name": "02_-_Default",
      "pbrMetallicRoughness": {
        "baseColorFactor": [0.917647, 0.0, 0.0, 1.0],
        "roughnessFactor": 0.549672860810251
      }
    },
    {
      "doubleSided": true,
      "name": "03_-_Default",
      "pbrMetallicRoughness": {
        "baseColorFactor": [0.0, 0.498039, 0.305882, 1.0],
        "roughnessFactor": 0.55
      }
    },
    {
      "doubleSided": true,
      "name": "07_-_Default",
      "pbrMetallicRoughness": {
        "baseColorFactor": [0.921569, 0.596078, 0.0, 1.0],
        "roughnessFactor": 0.55
      }
    },
    {
      "doubleSided": true,
      "name": "08_-_Default",
      "pbrMetallicRoughness": {
        "baseColorFactor": [0.0, 0.13333300000000006, 0.4784309999999998, 1.0],
        "roughnessFactor": 0.55
      }
    },
    {
      "doubleSided": true,
      "name": "09_-_Default",
      "pbrMetallicRoughness": {
        "metallicFactor": 0.0,
        "roughnessFactor": 0.8929713596
      }
    }
  ],
  "meshes": [
    {
      "name": "Logo_02 - Default_0",
      "primitives": [
        {
          "attributes": {
            "NORMAL": 1,
            "POSITION": 0,
            "TEXCOORD_0": 2
          },
          "indices": 3,
          "material": 0,
          "mode": 4
        }
      ]
    },
    {
      "name": "Logo_03 - Default_0",
      "primitives": [
        {
          "attributes": {
            "NORMAL": 5,
            "POSITION": 4,
            "TEXCOORD_0": 6
          },
          "indices": 7,
          "material": 1,
          "mode": 4
        }
      ]
    },
    {
      "name": "Logo_07 - Default_0",
      "primitives": [
        {
          "attributes": {
            "NORMAL": 9,
            "POSITION": 8,
            "TEXCOORD_0": 10
          },
          "indices": 11,
          "material": 2,
          "mode": 4
        }
      ]
    },
    {
      "name": "Logo_08 - Default_0",
      "primitives": [
        {
          "attributes": {
            "NORMAL": 13,
            "POSITION": 12,
            "TEXCOORD_0": 14
          },
          "indices": 15,
          "material": 3,
          "mode": 4
        }
      ]
    },
    {
      "name": "Logo_09 - Default_0",
      "primitives": [
        {
          "attributes": {
            "NORMAL": 17,
            "POSITION": 16,
            "TEXCOORD_0": 18
          },
          "indices": 19,
          "material": 4,
          "mode": 4
        }
      ]
    }
  ],
  "nodes": [
    {
      "children": [1],
      "matrix": [
        1.0, 0.0, 0.0, 0.0, 0.0, 2.220446049250313e-16, -1.0, 0.0, 0.0, 1.0,
        2.220446049250313e-16, 0.0, 0.0, 0.0, 0.0, 1.0
      ],
      "name": "Sketchfab_model"
    },
    {
      "children": [2],
      "matrix": [
        1.0, 0.0, 0.0, 0.0, 0.0, 0.0, 1.0, 0.0, 0.0, -1.0, 0.0, 0.0, 0.0, 0.0,
        0.0, 1.0
      ],
      "name": "3e7d287adec94b93922413ba06f31ecd.fbx"
    },
    {
      "children": [3],
      "name": "RootNode"
    },
    {
      "children": [4, 5, 6, 7, 8],
      "matrix": [
        1.0, 0.0, 0.0, 0.0, 0.0, 0.9999999999999867, 1.6292068494294582e-7, 0.0,
        0.0, -1.6292068494294582e-7, 0.9999999999999867, 0.0,
        -29.201438903808594, 81.30882263183594, 3.5541215765988454e-6, 1.0
      ],
      "name": "Logo"
    },
    {
      "mesh": 0,
      "name": "Logo_02 - Default_0"
    },
    {
      "mesh": 1,
      "name": "Logo_03 - Default_0"
    },
    {
      "mesh": 2,
      "name": "Logo_07 - Default_0"
    },
    {
      "mesh": 3,
      "name": "Logo_08 - Default_0"
    },
    {
      "mesh": 4,
      "name": "Logo_09 - Default_0"
    }
  ],
  "scene": 0,
  "scenes": [
    {
      "name": "Sketchfab_Scene",
      "nodes": [0]
    }
  ]
}
